<mxfile host="app.diagrams.net" modified="2023-06-07T11:32:46.830Z" agent="Mozilla/5.0 (Windows NT 10.0; Win64; x64) AppleWebKit/537.36 (KHTML, like Gecko) Chrome/114.0.0.0 Safari/537.36 OPR/100.0.0.0 (Edition developer)" etag="iZRov1RIJSx50MRhkJWI" version="21.3.6" type="device">
  <diagram name="Side-1" id="IFY8fCEBdAP2rcevdV2n">
    <mxGraphModel dx="1666" dy="815" grid="1" gridSize="10" guides="1" tooltips="1" connect="1" arrows="1" fold="1" page="1" pageScale="1" pageWidth="827" pageHeight="1169" math="0" shadow="0">
      <root>
        <mxCell id="0" />
        <mxCell id="1" parent="0" />
        <mxCell id="BBI9ajbG_UEcEhQ8OfQG-1" value="Hero" style="rounded=0;whiteSpace=wrap;html=1;" vertex="1" parent="1">
          <mxGeometry x="360" y="40" width="120" height="60" as="geometry" />
        </mxCell>
        <mxCell id="BBI9ajbG_UEcEhQ8OfQG-5" value="SuperDog" style="rounded=0;whiteSpace=wrap;html=1;direction=west;" vertex="1" parent="1">
          <mxGeometry x="690" y="520" width="120" height="60" as="geometry" />
        </mxCell>
        <mxCell id="BBI9ajbG_UEcEhQ8OfQG-6" value="FastKarl" style="rounded=0;whiteSpace=wrap;html=1;" vertex="1" parent="1">
          <mxGeometry x="690" y="300" width="120" height="60" as="geometry" />
        </mxCell>
        <mxCell id="BBI9ajbG_UEcEhQ8OfQG-7" value="PoisonGunner" style="rounded=0;whiteSpace=wrap;html=1;" vertex="1" parent="1">
          <mxGeometry x="690" y="380" width="120" height="60" as="geometry" />
        </mxCell>
        <mxCell id="BBI9ajbG_UEcEhQ8OfQG-8" value="MiniMouseMikkle" style="rounded=0;whiteSpace=wrap;html=1;" vertex="1" parent="1">
          <mxGeometry x="690" y="450" width="120" height="60" as="geometry" />
        </mxCell>
        <mxCell id="BBI9ajbG_UEcEhQ8OfQG-9" value="IvanTheRubberGoat" style="rounded=0;whiteSpace=wrap;html=1;" vertex="1" parent="1">
          <mxGeometry x="690" y="140" width="120" height="60" as="geometry" />
        </mxCell>
        <mxCell id="BBI9ajbG_UEcEhQ8OfQG-10" value="ElkEgon" style="rounded=0;whiteSpace=wrap;html=1;" vertex="1" parent="1">
          <mxGeometry x="690" y="220" width="120" height="60" as="geometry" />
        </mxCell>
        <mxCell id="BBI9ajbG_UEcEhQ8OfQG-11" value="" style="endArrow=block;endSize=16;endFill=0;html=1;rounded=0;entryX=0.5;entryY=1;entryDx=0;entryDy=0;" edge="1" parent="1" source="BBI9ajbG_UEcEhQ8OfQG-3" target="BBI9ajbG_UEcEhQ8OfQG-1">
          <mxGeometry width="160" relative="1" as="geometry">
            <mxPoint x="254" y="560" as="sourcePoint" />
            <mxPoint x="414" y="560" as="targetPoint" />
          </mxGeometry>
        </mxCell>
        <mxCell id="BBI9ajbG_UEcEhQ8OfQG-12" value="" style="endArrow=block;endSize=16;endFill=0;html=1;rounded=0;entryX=0.5;entryY=1;entryDx=0;entryDy=0;" edge="1" parent="1" source="BBI9ajbG_UEcEhQ8OfQG-5" target="BBI9ajbG_UEcEhQ8OfQG-1">
          <mxGeometry width="160" relative="1" as="geometry">
            <mxPoint x="213" y="230" as="sourcePoint" />
            <mxPoint x="387" y="110" as="targetPoint" />
          </mxGeometry>
        </mxCell>
        <mxCell id="BBI9ajbG_UEcEhQ8OfQG-13" value="" style="endArrow=block;endSize=16;endFill=0;html=1;rounded=0;entryX=0.5;entryY=1;entryDx=0;entryDy=0;" edge="1" parent="1" source="BBI9ajbG_UEcEhQ8OfQG-7" target="BBI9ajbG_UEcEhQ8OfQG-1">
          <mxGeometry width="160" relative="1" as="geometry">
            <mxPoint x="323" y="310" as="sourcePoint" />
            <mxPoint x="497" y="190" as="targetPoint" />
          </mxGeometry>
        </mxCell>
        <mxCell id="BBI9ajbG_UEcEhQ8OfQG-14" value="" style="endArrow=block;endSize=16;endFill=0;html=1;rounded=0;entryX=0.5;entryY=1;entryDx=0;entryDy=0;" edge="1" parent="1" source="BBI9ajbG_UEcEhQ8OfQG-9" target="BBI9ajbG_UEcEhQ8OfQG-1">
          <mxGeometry width="160" relative="1" as="geometry">
            <mxPoint x="366" y="230" as="sourcePoint" />
            <mxPoint x="530" y="180" as="targetPoint" />
          </mxGeometry>
        </mxCell>
        <mxCell id="BBI9ajbG_UEcEhQ8OfQG-15" value="" style="endArrow=block;endSize=16;endFill=0;html=1;rounded=0;" edge="1" parent="1" source="BBI9ajbG_UEcEhQ8OfQG-8">
          <mxGeometry width="160" relative="1" as="geometry">
            <mxPoint x="376" y="240" as="sourcePoint" />
            <mxPoint x="420" y="100" as="targetPoint" />
          </mxGeometry>
        </mxCell>
        <mxCell id="BBI9ajbG_UEcEhQ8OfQG-16" value="" style="endArrow=block;endSize=16;endFill=0;html=1;rounded=0;" edge="1" parent="1" source="BBI9ajbG_UEcEhQ8OfQG-3">
          <mxGeometry width="160" relative="1" as="geometry">
            <mxPoint x="346" y="390" as="sourcePoint" />
            <mxPoint x="420" y="100" as="targetPoint" />
          </mxGeometry>
        </mxCell>
        <mxCell id="BBI9ajbG_UEcEhQ8OfQG-17" value="" style="endArrow=block;endSize=16;endFill=0;html=1;rounded=0;" edge="1" parent="1" source="BBI9ajbG_UEcEhQ8OfQG-10">
          <mxGeometry width="160" relative="1" as="geometry">
            <mxPoint x="396" y="260" as="sourcePoint" />
            <mxPoint x="420" y="100" as="targetPoint" />
          </mxGeometry>
        </mxCell>
        <mxCell id="BBI9ajbG_UEcEhQ8OfQG-18" value="" style="endArrow=block;endSize=16;endFill=0;html=1;rounded=0;" edge="1" parent="1" source="BBI9ajbG_UEcEhQ8OfQG-6">
          <mxGeometry width="160" relative="1" as="geometry">
            <mxPoint x="670" y="221" as="sourcePoint" />
            <mxPoint x="420" y="100" as="targetPoint" />
          </mxGeometry>
        </mxCell>
        <mxCell id="BBI9ajbG_UEcEhQ8OfQG-3" value="KongFuHarry" style="rounded=0;whiteSpace=wrap;html=1;direction=west;" vertex="1" parent="1">
          <mxGeometry x="690" y="590" width="120" height="60" as="geometry" />
        </mxCell>
      </root>
    </mxGraphModel>
  </diagram>
</mxfile>
